<?xml version="1.0" encoding="utf-8" standalone="no"?>
<!DOCTYPE svg PUBLIC "-//W3C//DTD SVG 1.1//EN" "http://www.w3.org/Graphics/SVG/1.1/DTD/svg11.dtd">

<svg width="210mm" height="297mm" viewBox="0 0 210 297" xmlns="http://www.w3.org/2000/svg" xmlns:xlink="http://www.w3.org/1999/xlink" version="1.1" style="stroke:black; fill:none; stroke-width:0.5pt; stroke-linejoin:round; text-anchor:middle" font-family="Helvetica, Arial, FreeSans, Sans, sans, sans-serif">

<g>

<circle cx="35.0" cy="48.5" r="8.0" fill="black" stroke="none" />

<circle cx="55.0" cy="68.5" r="8.0" fill="black" stroke="none" />

<circle cx="35.0" cy="88.5" r="8.0" fill="black" stroke="none" />

<circle cx="55.0" cy="108.5" r="8.0" fill="black" stroke="none" />

<circle cx="35.0" cy="128.5" r="8.0" fill="black" stroke="none" />

<circle cx="55.0" cy="148.5" r="8.0" fill="black" stroke="none" />

<circle cx="35.0" cy="168.5" r="8.0" fill="black" stroke="none" />

<circle cx="55.0" cy="188.5" r="8.0" fill="black" stroke="none" />

<circle cx="35.0" cy="208.5" r="8.0" fill="black" stroke="none" />

<circle cx="55.0" cy="228.5" r="8.0" fill="black" stroke="none" />

<circle cx="35.0" cy="248.5" r="8.0" fill="black" stroke="none" />

<circle cx="75.0" cy="48.5" r="8.0" fill="black" stroke="none" />

<circle cx="95.0" cy="68.5" r="8.0" fill="black" stroke="none" />

<circle cx="75.0" cy="88.5" r="8.0" fill="black" stroke="none" />

<circle cx="95.0" cy="108.5" r="8.0" fill="black" stroke="none" />

<circle cx="75.0" cy="128.5" r="8.0" fill="black" stroke="none" />

<circle cx="95.0" cy="148.5" r="8.0" fill="black" stroke="none" />

<circle cx="75.0" cy="168.5" r="8.0" fill="black" stroke="none" />

<circle cx="95.0" cy="188.5" r="8.0" fill="black" stroke="none" />

<circle cx="75.0" cy="208.5" r="8.0" fill="black" stroke="none" />

<circle cx="95.0" cy="228.5" r="8.0" fill="black" stroke="none" />

<circle cx="75.0" cy="248.5" r="8.0" fill="black" stroke="none" />

<circle cx="115.0" cy="48.5" r="8.0" fill="black" stroke="none" />

<circle cx="135.0" cy="68.5" r="8.0" fill="black" stroke="none" />

<circle cx="115.0" cy="88.5" r="8.0" fill="black" stroke="none" />

<circle cx="135.0" cy="108.5" r="8.0" fill="black" stroke="none" />

<circle cx="115.0" cy="128.5" r="8.0" fill="black" stroke="none" />

<circle cx="135.0" cy="148.5" r="8.0" fill="black" stroke="none" />

<circle cx="115.0" cy="168.5" r="8.0" fill="black" stroke="none" />

<circle cx="135.0" cy="188.5" r="8.0" fill="black" stroke="none" />

<circle cx="115.0" cy="208.5" r="8.0" fill="black" stroke="none" />

<circle cx="135.0" cy="228.5" r="8.0" fill="black" stroke="none" />

<circle cx="115.0" cy="248.5" r="8.0" fill="black" stroke="none" />

<circle cx="155.0" cy="48.5" r="8.0" fill="black" stroke="none" />

<circle cx="175.0" cy="68.5" r="8.0" fill="black" stroke="none" />

<circle cx="155.0" cy="88.5" r="8.0" fill="black" stroke="none" />

<circle cx="175.0" cy="108.5" r="8.0" fill="black" stroke="none" />

<circle cx="155.0" cy="128.5" r="8.0" fill="black" stroke="none" />

<circle cx="175.0" cy="148.5" r="8.0" fill="black" stroke="none" />

<circle cx="155.0" cy="168.5" r="8.0" fill="black" stroke="none" />

<circle cx="175.0" cy="188.5" r="8.0" fill="black" stroke="none" />

<circle cx="155.0" cy="208.5" r="8.0" fill="black" stroke="none" />

<circle cx="175.0" cy="228.5" r="8.0" fill="black" stroke="none" />

<circle cx="155.0" cy="248.5" r="8.0" fill="black" stroke="none" />

</g>

</svg>

