<?xml version="1.0" encoding="utf-8" standalone="no"?>
<!DOCTYPE svg PUBLIC "-//W3C//DTD SVG 1.1//EN" "http://www.w3.org/Graphics/SVG/1.1/DTD/svg11.dtd">

<svg width="210mm" height="297mm" viewBox="0 0 210 297" xmlns="http://www.w3.org/2000/svg" xmlns:xlink="http://www.w3.org/1999/xlink" version="1.1" style="stroke:black; fill:none; stroke-width:0.5pt; stroke-linejoin:round; text-anchor:middle" font-family="Helvetica, Arial, FreeSans, Sans, sans, sans-serif">

<g>

<circle cx="30.0" cy="28.499999999999986" r="8.571428571428571" fill="black" stroke="none" />

<circle cx="30.0" cy="58.499999999999986" r="8.571428571428571" fill="black" stroke="none" />

<circle cx="30.0" cy="88.49999999999999" r="8.571428571428571" fill="black" stroke="none" />

<circle cx="30.0" cy="118.49999999999999" r="8.571428571428571" fill="black" stroke="none" />

<circle cx="30.0" cy="148.5" r="8.571428571428571" fill="black" stroke="none" />

<circle cx="30.0" cy="178.5" r="8.571428571428571" fill="black" stroke="none" />

<circle cx="30.0" cy="208.5" r="8.571428571428571" fill="black" stroke="none" />

<circle cx="30.0" cy="238.5" r="8.571428571428571" fill="black" stroke="none" />

<circle cx="30.0" cy="268.5" r="8.571428571428571" fill="black" stroke="none" />

<circle cx="60.0" cy="28.499999999999986" r="8.571428571428571" fill="black" stroke="none" />

<circle cx="60.0" cy="58.499999999999986" r="8.571428571428571" fill="black" stroke="none" />

<circle cx="60.0" cy="88.49999999999999" r="8.571428571428571" fill="black" stroke="none" />

<circle cx="60.0" cy="118.49999999999999" r="8.571428571428571" fill="black" stroke="none" />

<circle cx="60.0" cy="148.5" r="8.571428571428571" fill="black" stroke="none" />

<circle cx="60.0" cy="178.5" r="8.571428571428571" fill="black" stroke="none" />

<circle cx="60.0" cy="208.5" r="8.571428571428571" fill="black" stroke="none" />

<circle cx="60.0" cy="238.5" r="8.571428571428571" fill="black" stroke="none" />

<circle cx="60.0" cy="268.5" r="8.571428571428571" fill="black" stroke="none" />

<circle cx="90.0" cy="28.499999999999986" r="8.571428571428571" fill="black" stroke="none" />

<circle cx="90.0" cy="58.499999999999986" r="8.571428571428571" fill="black" stroke="none" />

<circle cx="90.0" cy="88.49999999999999" r="8.571428571428571" fill="black" stroke="none" />

<circle cx="90.0" cy="118.49999999999999" r="8.571428571428571" fill="black" stroke="none" />

<circle cx="90.0" cy="148.5" r="8.571428571428571" fill="black" stroke="none" />

<circle cx="90.0" cy="178.5" r="8.571428571428571" fill="black" stroke="none" />

<circle cx="90.0" cy="208.5" r="8.571428571428571" fill="black" stroke="none" />

<circle cx="90.0" cy="238.5" r="8.571428571428571" fill="black" stroke="none" />

<circle cx="90.0" cy="268.5" r="8.571428571428571" fill="black" stroke="none" />

<circle cx="120.0" cy="28.499999999999986" r="8.571428571428571" fill="black" stroke="none" />

<circle cx="120.0" cy="58.499999999999986" r="8.571428571428571" fill="black" stroke="none" />

<circle cx="120.0" cy="88.49999999999999" r="8.571428571428571" fill="black" stroke="none" />

<circle cx="120.0" cy="118.49999999999999" r="8.571428571428571" fill="black" stroke="none" />

<circle cx="120.0" cy="148.5" r="8.571428571428571" fill="black" stroke="none" />

<circle cx="120.0" cy="178.5" r="8.571428571428571" fill="black" stroke="none" />

<circle cx="120.0" cy="208.5" r="8.571428571428571" fill="black" stroke="none" />

<circle cx="120.0" cy="238.5" r="8.571428571428571" fill="black" stroke="none" />

<circle cx="120.0" cy="268.5" r="8.571428571428571" fill="black" stroke="none" />

<circle cx="150.00000000000003" cy="28.499999999999986" r="8.571428571428571" fill="black" stroke="none" />

<circle cx="150.00000000000003" cy="58.499999999999986" r="8.571428571428571" fill="black" stroke="none" />

<circle cx="150.00000000000003" cy="88.49999999999999" r="8.571428571428571" fill="black" stroke="none" />

<circle cx="150.00000000000003" cy="118.49999999999999" r="8.571428571428571" fill="black" stroke="none" />

<circle cx="150.00000000000003" cy="148.5" r="8.571428571428571" fill="black" stroke="none" />

<circle cx="150.00000000000003" cy="178.5" r="8.571428571428571" fill="black" stroke="none" />

<circle cx="150.00000000000003" cy="208.5" r="8.571428571428571" fill="black" stroke="none" />

<circle cx="150.00000000000003" cy="238.5" r="8.571428571428571" fill="black" stroke="none" />

<circle cx="150.00000000000003" cy="268.5" r="8.571428571428571" fill="black" stroke="none" />

<circle cx="180.00000000000003" cy="28.499999999999986" r="8.571428571428571" fill="black" stroke="none" />

<circle cx="180.00000000000003" cy="58.499999999999986" r="8.571428571428571" fill="black" stroke="none" />

<circle cx="180.00000000000003" cy="88.49999999999999" r="8.571428571428571" fill="black" stroke="none" />

<circle cx="180.00000000000003" cy="118.49999999999999" r="8.571428571428571" fill="black" stroke="none" />

<circle cx="180.00000000000003" cy="148.5" r="8.571428571428571" fill="black" stroke="none" />

<circle cx="180.00000000000003" cy="178.5" r="8.571428571428571" fill="black" stroke="none" />

<circle cx="180.00000000000003" cy="208.5" r="8.571428571428571" fill="black" stroke="none" />

<circle cx="180.00000000000003" cy="238.5" r="8.571428571428571" fill="black" stroke="none" />

<circle cx="180.00000000000003" cy="268.5" r="8.571428571428571" fill="black" stroke="none" />

</g>

</svg>

